<svg width="63" height="63" viewBox="0 0 63 63" fill="none" xmlns="http://www.w3.org/2000/svg">
<circle cx="31.5" cy="31.5" r="31.5" fill="#F6FFD8"/>
<path d="M21.0026 33.6663L24.6693 36.4163C26.447 37.7497 28.8915 37.7497 30.6693 36.4163L34.3359 33.6663M41.3678 23.7062L38.2776 19.8434C37.8838 19.3512 37.6693 18.7396 37.6693 18.1092V17.9847C37.6693 16.5202 38.8565 15.333 40.3209 15.333C41.0242 15.333 41.6986 15.6124 42.1959 16.1097L42.6693 16.583L43.1426 16.1097C43.6399 15.6124 44.3144 15.333 45.0176 15.333C46.4821 15.333 47.6693 16.5202 47.6693 17.9847V18.1092C47.6693 18.7396 47.4547 19.3512 47.0609 19.8434L43.9707 23.7062C43.3035 24.5402 42.035 24.5402 41.3678 23.7062ZM19.3359 48.6663H36.0026C38.764 48.6663 41.0026 46.4278 41.0026 43.6663V30.333C41.0026 27.5716 38.764 25.333 36.0026 25.333H19.3359C16.5745 25.333 14.3359 27.5716 14.3359 30.333V43.6663C14.3359 46.4278 16.5745 48.6663 19.3359 48.6663Z" stroke="#1A1E21" stroke-width="2" stroke-linecap="round" stroke-linejoin="round"/>
<path d="M38.2724 19.8434L41.3626 23.7062C42.0298 24.5402 43.2983 24.5402 43.9655 23.7062L47.0557 19.8434C47.4495 19.3512 47.6641 18.7396 47.6641 18.1092V17.9847C47.6641 16.5202 46.4769 15.333 45.0124 15.333C44.3092 15.333 43.6347 15.6124 43.1374 16.1097L42.6641 16.583L42.1907 16.1097C41.6934 15.6124 41.019 15.333 40.3157 15.333C38.8512 15.333 37.6641 16.5202 37.6641 17.9847V18.1092C37.6641 18.7396 37.8786 19.3512 38.2724 19.8434Z" fill="#BAEC7B" stroke="#1A1E21" stroke-width="1.5" stroke-linecap="round" stroke-linejoin="round"/>
</svg>
