<svg width="38" height="42" viewBox="0 0 38 42" fill="none" xmlns="http://www.w3.org/2000/svg">
<ellipse cx="18.8438" cy="5.20312" rx="7.45312" ry="4.20312" fill="#97D4FF"/>
<path d="M26.6369 5.28008H28.609C32.9656 5.28008 36.4973 8.81178 36.4973 13.1684V32.8891C36.4973 37.2456 32.9656 40.7773 28.609 40.7773H8.88828C4.5317 40.7773 1 37.2456 1 32.8891V13.1684C1 8.81178 4.5317 5.28008 8.88828 5.28008H10.8604M26.6369 5.28008C26.6369 7.45837 24.8711 9.22422 22.6928 9.22422H14.8045C12.6262 9.22422 10.8604 7.45837 10.8604 5.28008M26.6369 5.28008C26.6369 3.10179 24.8711 1.33594 22.6928 1.33594H14.8045C12.6262 1.33594 10.8604 3.10179 10.8604 5.28008M18.7486 17.1125H26.6369M18.7486 25.0008H26.6369M18.7486 32.8891H26.6369" stroke="#1A1E21" stroke-width="2" stroke-linecap="round"/>
<path d="M12.8191 17.1127C12.8191 17.6496 12.3839 18.0848 11.8471 18.0848C11.3102 18.0848 10.875 17.6496 10.875 17.1127C10.875 16.5758 11.3102 16.1406 11.8471 16.1406C12.3839 16.1406 12.8191 16.5758 12.8191 17.1127Z" fill="#28303F" stroke="#1A1E21" stroke-width="2"/>
<path d="M12.8191 25.0004C12.8191 25.5373 12.3839 25.9725 11.8471 25.9725C11.3102 25.9725 10.875 25.5373 10.875 25.0004C10.875 24.4635 11.3102 24.0283 11.8471 24.0283C12.3839 24.0283 12.8191 24.4635 12.8191 25.0004Z" fill="#28303F" stroke="#1A1E21" stroke-width="2"/>
<path d="M12.8191 32.8891C12.8191 33.4259 12.3839 33.8611 11.8471 33.8611C11.3102 33.8611 10.875 33.4259 10.875 32.8891C10.875 32.3522 11.3102 31.917 11.8471 31.917C12.3839 31.917 12.8191 32.3522 12.8191 32.8891Z" fill="#28303F" stroke="#1A1E21" stroke-width="2"/>
</svg>
