<svg width="63" height="63" viewBox="0 0 63 63" fill="none" xmlns="http://www.w3.org/2000/svg">
<circle cx="31.5" cy="31.5" r="31.5" fill="#F2F0FF"/>
<path d="M46 30.1478C46 38.3298 36.625 48.6663 31 48.6663C25.375 48.6663 16 38.3298 16 30.1478C16 21.9658 22.7157 15.333 31 15.333C39.2843 15.333 46 21.9658 46 30.1478Z" stroke="#1A1E21" stroke-width="2"/>
<path d="M36 30.333C36 33.0944 33.7614 35.333 31 35.333C28.2386 35.333 26 33.0944 26 30.333C26 27.5716 28.2386 25.333 31 25.333C33.7614 25.333 36 27.5716 36 30.333Z" stroke="#1A1E21" stroke-width="2"/>
<circle cx="31" cy="30.5" r="5.5" fill="#D7B8FF" stroke="#1A1E21" stroke-width="2"/>
</svg>
