<svg viewBox="0 0 131.79 118.59" xmlns="http://www.w3.org/2000/svg"><rect fill="#f7afa3" height="50" opacity=".15" rx="25" transform="matrix(.70710678 -.70710678 .70710678 .70710678 -24.56 59.29)" width="147" x="-14.21" y="34.29"/><path d="m114.23 41.64v43.92a6.52 6.52 0 0 1 -6.51 6.52l-79.66.05a6.52 6.52 0 0 1 -6.52-6.55l.18-43.58a6.52 6.52 0 0 1 6.48-6.49l79.47-.42a6.52 6.52 0 0 1 6.56 6.55z" fill="#fff"/><g fill="#f5a8a0" opacity=".3"><path d="m56.47 54.87h23.07v3h-23.07z" opacity=".3" transform="matrix(.68860774 -.72513405 .72513405 .68860774 -19.7 66.86)"/><path d="m64.37 57.8h14.8v3h-14.8z" opacity=".3" transform="matrix(.67828793 -.73479622 .73479622 .67828793 -20.48 71.82)"/></g><path d="m70.19 44.69a0 0 0 0 1 0 0v90.9a0 0 0 0 1 0 0 5.68 5.68 0 0 1 -5.68-5.68v-79.54a5.68 5.68 0 0 1 5.68-5.68z" fill="#e2e9f1" transform="matrix(0 -1 1 0 -22.79 157.48)"/><path d="m77.29 30.75a6.49 6.49 0 1 1 6.49-6.49 6.5 6.5 0 0 1 -6.49 6.49zm0-10a3.49 3.49 0 1 0 3.49 3.49 3.5 3.5 0 0 0 -3.49-3.48z" fill="#f5a8a0"/><circle cx="66.6" cy="27.89" fill="#f5a8a0" r="2.13"/><circle cx="31.77" cy="97.57" fill="#d5dfeb" r="2.13"/><path d="m42 106.29a5.37 5.37 0 1 1 5.37-5.37 5.38 5.38 0 0 1 -5.37 5.37zm0-7.74a2.37 2.37 0 1 0 2.37 2.37 2.37 2.37 0 0 0 -2.37-2.37z" fill="#3e6177"/><path d="m27 93.63a8 8 0 0 1 -8-8.05l.22-43.58a8 8 0 0 1 8-8l79.47-.42a8 8 0 0 1 8 8v43.98a8 8 0 0 1 -8 8l-79.67.05zm79.67-57-79.46.37a5 5 0 0 0 -5 5l-.21 43.59a5 5 0 0 0 5 5l79.67-.05a5 5 0 0 0 5-5v-43.9a5 5 0 0 0 -5-5z" fill="#3e6177"/><path d="m66.88 75.64a10.78 10.78 0 0 1 -7.67-3.18l-26.11-26.1 2.12-2.12 26.11 26.1a7.85 7.85 0 0 0 11.1 0l26.11-26.11 2.12 2.12-26.11 26.11a10.78 10.78 0 0 1 -7.67 3.18z" fill="#3e6177"/><path d="m25.65 69.58h29.3v3h-29.3z" fill="#3e6177" transform="matrix(.65921458 -.75195487 .75195487 .65921458 -39.72 54.53)"/><path d="m91.97 56.43h3v29.3h-3z" fill="#3e6177" transform="matrix(.75206992 -.65908333 .65908333 .75206992 -23.68 79.22)"/><g fill="#fff"><path d="m104.89 38.89h2v10.84h-2z"/><path d="m104.89 51.28h2v4.65h-2z"/><path d="m104.89 57.47h2v1.55h-2z"/><path d="m106.32 43.88h2v12.69h-2z"/><path d="m106.32 58.38h2v5.44h-2z"/><path d="m106.32 65.63h2v1.81h-2z"/><circle cx="105.62" cy="41.95" r="26.17"/></g><circle cx="106.53" cy="41.95" fill="#f5a8a0" r="21.23"/><path d="m105.62 64.68a22.73 22.73 0 1 1 22.73-22.73 22.76 22.76 0 0 1 -22.73 22.73zm0-42.47a19.73 19.73 0 1 0 19.73 19.73 19.76 19.76 0 0 0 -19.73-19.72z" fill="#3e6177"/><path d="m103.7 51.43a1.92 1.92 0 0 1 -1.1-.35l-7.67-5.37a1.5 1.5 0 0 1 1.72-2.46l6.82 4.75 11.13-14.84a1.5 1.5 0 1 1 2.4 1.84l-11.76 15.65a1.92 1.92 0 0 1 -1.54.78z" fill="#fff"/></svg>