<svg width="42" height="41" viewBox="0 0 42 41" fill="none" xmlns="http://www.w3.org/2000/svg">
<path d="M14.8887 17.7812L29.0762 20.5938L21.2012 29.4688L17.3262 30.5938H13.4512L11.4512 29.4688L10.7012 26.9062L11.4512 21.2812L14.8887 17.7812Z" fill="#FFE37E"/>
<path d="M23.564 8.60792L12.4046 19.7673C11.746 20.4258 11.3189 21.2802 11.1872 22.2021L10.6799 25.7528C10.2741 28.5934 12.7089 31.0281 15.5495 30.6223L19.1002 30.1151C20.0221 29.9834 20.8765 29.5562 21.535 28.8977L32.6944 17.7383C34.3752 16.0575 34.3752 13.3323 32.6944 11.6514L29.6509 8.60792C27.97 6.92706 25.2448 6.92706 23.564 8.60792Z" stroke="#1A1E21" stroke-width="2" stroke-linecap="round"/>
<path d="M37.2637 4.04297L31.1767 10.1299" stroke="#1A1E21" stroke-width="2" stroke-linecap="round" stroke-linejoin="round"/>
<path d="M34.2246 1L40.3115 7.08694" stroke="#1A1E21" stroke-width="2" stroke-linecap="round" stroke-linejoin="round"/>
<path d="M14.4345 17.7383L29.6519 20.7818" stroke="#1A1E21" stroke-width="2" stroke-linecap="round" stroke-linejoin="round"/>
<path d="M11.3911 29.9116L0.999669 39.7357" stroke="#1A1E21" stroke-width="2" stroke-linecap="round" stroke-linejoin="round"/>
</svg>
