<svg width="63" height="63" viewBox="0 0 63 63" fill="none" xmlns="http://www.w3.org/2000/svg">
<circle cx="31.5" cy="31.5" r="31.5" fill="#E0F2FF"/>
<path d="M35.0431 22.2622L37.5638 25.413C38.8982 27.0811 41.4351 27.0811 42.7696 25.413L45.2903 22.2622C45.7497 21.6879 46 20.9743 46 20.2389V20.0936C46 18.385 44.615 17 42.9064 17C42.0859 17 41.2991 17.3259 40.7189 17.9061L40.1667 18.4583L39.6144 17.9061C39.0343 17.3259 38.2474 17 37.4269 17C35.7184 17 34.3333 18.385 34.3333 20.0936V20.2389C34.3333 20.9743 34.5836 21.6879 35.0431 22.2622Z" stroke="#1A1E21" stroke-width="2" stroke-linejoin="round"/>
<path d="M46 43.6667V40.9234C46 39.5604 45.1702 38.3347 43.9046 37.8285L40.5144 36.4724C38.9048 35.8286 37.0703 36.526 36.295 38.0766L36 38.6667C36 38.6667 31.8333 37.8333 28.5 34.5C25.1667 31.1667 24.3333 27 24.3333 27L24.9234 26.705C26.474 25.9297 27.1714 24.0952 26.5276 22.4856L25.1715 19.0954C24.6653 17.8298 23.4396 17 22.0766 17H19.3333C17.4924 17 16 18.4924 16 20.3333C16 35.0609 27.9391 47 42.6667 47C44.5076 47 46 45.5076 46 43.6667Z" stroke="#1A1E21" stroke-width="2" stroke-linejoin="round"/>
<path d="M35.0457 22.2622L37.5664 25.413C38.9008 27.0811 41.4377 27.0811 42.7722 25.413L45.2929 22.2622C45.7523 21.6879 46.0026 20.9743 46.0026 20.2389V20.0936C46.0026 18.385 44.6176 17 42.909 17C42.0885 17 41.3017 17.3259 40.7215 17.9061L40.1693 18.4583L39.617 17.9061C39.0369 17.3259 38.25 17 37.4295 17C35.721 17 34.3359 18.385 34.3359 20.0936V20.2389C34.3359 20.9743 34.5862 21.6879 35.0457 22.2622Z" fill="#97D4FF" stroke="#1A1E21" stroke-width="2" stroke-linejoin="round"/>
</svg>
