<svg width="46" height="41" viewBox="0 0 46 41" fill="none" xmlns="http://www.w3.org/2000/svg">
<path d="M17.1406 13.8242H8.64062V29.6992C9.07812 30.9492 10.6031 33.4742 13.2031 33.5742C15.8031 33.6742 16.9115 31.0326 17.1406 29.6992V13.8242Z" fill="#D7B8FF"/>
<path d="M36.5781 13.8242H28.0781V29.6992C28.5156 30.9492 30.0406 33.4742 32.6406 33.5742C35.2406 33.6742 36.349 31.0326 36.5781 29.6992V13.8242Z" fill="#D7B8FF"/>
<path d="M25.8418 1H38.8027M6.40039 1H19.3613M28.002 1H36.6426V29.082C36.6426 31.4681 34.7083 33.4023 32.3223 33.4023C29.9362 33.4023 28.002 31.4681 28.002 29.082V1ZM8.56055 1H17.2012V29.082C17.2012 31.4681 15.2669 33.4023 12.8809 33.4023C10.4948 33.4023 8.56055 31.4681 8.56055 29.082V1ZM5.32031 13.9609H39.8828C42.2689 13.9609 44.2031 15.8952 44.2031 18.2812V35.5625C44.2031 37.9485 42.2689 39.8828 39.8828 39.8828H5.32031C2.93427 39.8828 1 37.9485 1 35.5625V18.2812C1 15.8952 2.93427 13.9609 5.32031 13.9609Z" stroke="#1A1E21" stroke-width="2" stroke-linecap="round" stroke-linejoin="round"/>
</svg>
